HIERARCHY
ROOT Hips
{
	OFFSET -3.958830 18.904000 13.208200
	CHANNELS 6 Xposition Yposition Zposition Zrotation Yrotation Xrotation 
	JOINT LHipJoint
	{
		OFFSET 0.000000 0.000000 0.000000
		CHANNELS 3 Zrotation Yrotation Xrotation
		JOINT LeftUpLeg
		{
			OFFSET 1.800000 -1.400000 0.085000
			CHANNELS 3 Zrotation Yrotation Xrotation
			JOINT LeftLeg
			{
				OFFSET 2.215000 -6.000000 0.000000
				CHANNELS 3 Zrotation Yrotation Xrotation
				JOINT LeftFoot
				{
					OFFSET 2.500000 -6.900000 0.000000
					CHANNELS 3 Zrotation Yrotation Xrotation
					JOINT LeftToeBase
					{
						OFFSET 0.200000 -0.500000 1.950000
						CHANNELS 3 Zrotation Yrotation Xrotation
						End Site
						{
							OFFSET 0.000000 0.000000 0.000000
						}
					}
				}
			}
		}
	}
	JOINT RHipJoint
	{
		OFFSET 0.000000 0.000000 0.000000
		CHANNELS 3 Zrotation Yrotation Xrotation
		JOINT RightUpLeg
		{
			OFFSET -1.800000 -1.400000 0.085000
			CHANNELS 3 Zrotation Yrotation Xrotation
			JOINT RightLeg
			{
				OFFSET -2.215000 -6.000000 0.000000
				CHANNELS 3 Zrotation Yrotation Xrotation
				JOINT RightFoot
				{
					OFFSET -2.500000 -6.900000 0.000000
					CHANNELS 3 Zrotation Yrotation Xrotation
					JOINT RightToeBase
					{
						OFFSET -0.200000 -0.500000 1.950000
						CHANNELS 3 Zrotation Yrotation Xrotation
						End Site
						{
							OFFSET 0.000000 0.000000 0.000000
						}
					}
				}
			}
		}
	}
	JOINT LowerBack
	{
		OFFSET 0.000000 0.000000 0.000000
		CHANNELS 3 Zrotation Yrotation Xrotation
		JOINT Spine
		{
			OFFSET -0.087000 1.940000 -0.288900
			CHANNELS 3 Zrotation Yrotation Xrotation
			JOINT Spine1
			{
				OFFSET 0.000000 1.950000 0.060000
				CHANNELS 3 Zrotation Yrotation Xrotation
				JOINT Neck
				{
					OFFSET 0.000000 0.000000 0.000000
					CHANNELS 3 Zrotation Yrotation Xrotation
					JOINT Neck1
					{
						OFFSET 0.000000 1.600000 0.340000
						CHANNELS 3 Zrotation Yrotation Xrotation
						JOINT Head
						{
							OFFSET 0.000000 1.667000 -0.240000
							CHANNELS 3 Zrotation Yrotation Xrotation
							End Site
							{
								OFFSET 0.000000 0.000000 0.000000
							}
						}
					}
				}
				JOINT LeftShoulder
				{
					OFFSET 0.000000 0.000000 0.000000
					CHANNELS 3 Zrotation Yrotation Xrotation
					JOINT LeftArm
					{
						OFFSET 2.700000 1.550000 -0.730000
						CHANNELS 3 Zrotation Yrotation Xrotation
						JOINT LeftForeArm
						{
							OFFSET 5.450000 0.000000 0.000000
							CHANNELS 3 Zrotation Yrotation Xrotation
							JOINT LeftHand
							{
								OFFSET 3.450000 0.000000 0.000000
								CHANNELS 3 Zrotation Yrotation Xrotation
								JOINT LeftHandIndex1
								{
									OFFSET 0.750000 0.000000 0.000000
									CHANNELS 3 Zrotation Yrotation Xrotation
									End Site
									{
										OFFSET 0.000000 0.000000 0.000000
									}
								}
							}
						}
					}
				}
				JOINT RightShoulder
				{
					OFFSET 0.000000 0.000000 0.000000
					CHANNELS 3 Zrotation Yrotation Xrotation
					JOINT RightArm
					{
						OFFSET -2.700000 1.550000 -0.730000
						CHANNELS 3 Zrotation Yrotation Xrotation
						JOINT RightForeArm
						{
							OFFSET -5.450000 0.000000 0.000000
							CHANNELS 3 Zrotation Yrotation Xrotation
							JOINT RightHand
							{
								OFFSET -3.450000 0.000000 0.000000
								CHANNELS 3 Zrotation Yrotation Xrotation
								JOINT RightHandIndex1
								{
									OFFSET -0.750000 0.000000 0.000000
									CHANNELS 3 Zrotation Yrotation Xrotation
									End Site
									{
										OFFSET 0.000000 0.000000 0.000000
									}
								}
							}
						}
					}
				}
			}
		}
	}
}
MOTION
Frames: 6
Frame Time: 0.016667
1.021290 12.316810 0.299360 -69.400917 -60.461157 38.796052 -16.607074 6.423915 6.144951 -28.880821 -33.316056 -81.373956 59.090603 -6.711315 39.788877 1.094873 11.486848 0.340533 0.253530 -0.104700 0.530660 18.445689 -2.659974 8.012254 -61.571035 6.456429 -15.259719 117.458741 16.947114 -11.929559 -0.827098 -3.771313 2.819711 -0.146420 0.066690 0.354420 -2.986544 -3.259545 -12.158437 -13.674966 15.617075 49.166885 -9.579048 8.349918 17.939505 6.045288 1.532942 -19.235332 -0.177510 9.593615 62.980146 4.256620 9.614990 -1.462190 -12.366656 -26.893338 12.120407 -33.824170 0.682819 -2.152625 16.841890 3.747140 -0.271331 -3.981063 2.922882 0.679590 0.030730 0.141460 -0.261860 -0.753651 33.323768 11.832162 24.775859 17.226782 -18.903530 -98.798082 48.893220 -65.978340 2.117118 -0.810454 -0.098520 -0.071190 0.172950 -0.263180 
0.855080 12.242420 0.343790 -77.251772 -64.344127 41.715470 -16.529457 7.478780 6.370454 -21.266506 -31.908116 -87.601662 66.418012 -12.077051 47.831943 1.817153 14.138920 -0.160785 0.226500 -0.110300 0.495490 18.237090 -4.767579 5.982002 -59.863173 5.408430 -23.373236 129.295987 -24.846823 3.191684 -2.093212 -8.610768 1.482720 -0.158270 0.219730 0.241290 -2.862560 -3.037873 -11.340870 -13.527787 15.331768 48.407810 -8.140780 8.969166 16.758160 5.605227 1.773855 -18.442382 0.047007 7.784523 62.876375 2.745200 7.945110 -0.873800 -13.828925 -25.540416 10.960559 -34.901023 -0.045029 -1.184480 9.734421 9.284721 0.116406 -4.064781 2.629047 0.640600 0.065150 0.099350 -0.126960 1.761541 31.805284 12.077135 30.939512 14.100737 -18.708421 -91.666920 57.713805 -65.034981 1.787904 0.033192 -0.168630 0.180260 0.130830 -0.210450 
0.687120 12.219590 0.502270 -80.804861 -67.551969 38.435629 -16.510913 8.233752 6.958879 -15.597842 -30.026036 -86.596908 72.642161 -18.781154 56.326559 2.637366 16.630470 -0.633091 0.408650 0.143020 0.607780 18.029112 -6.845786 3.928109 -58.423251 7.844753 -25.039634 117.306537 -57.281649 20.217496 -2.504957 -10.060657 1.119627 -0.054240 0.102310 0.140260 -3.116247 -2.554138 -10.688447 -11.357742 13.861274 53.100502 -9.140885 9.197006 16.494435 5.596614 2.256027 -18.899288 -0.596007 5.241700 65.293298 2.696180 4.741440 -3.925910 -19.092840 -27.655635 11.066292 -30.870761 1.203062 -1.220232 5.038224 14.253726 -0.126221 -3.945154 2.487916 0.639590 -0.061740 0.207470 -0.010160 6.971208 33.621714 11.711135 31.536510 7.014148 -24.853733 -65.020521 63.311832 -42.988300 1.476912 -0.168592 -0.105380 0.274900 -0.054080 -0.173420 
0.588970 12.193580 0.653350 -94.779276 -71.743146 47.629122 -16.369124 7.576246 6.822175 -3.078774 -22.950726 -87.377486 67.716215 -23.915668 74.487868 3.350859 19.114977 -1.094971 0.685280 0.490610 0.747400 18.276586 -5.968506 4.836839 -59.757637 11.058515 -29.441468 86.078595 -69.443818 48.189253 -2.658534 -10.295977 1.027589 0.121060 -0.053390 0.090290 -3.223233 -2.457675 -11.222774 -9.888746 11.608907 55.905747 -10.806476 9.545986 18.379494 5.906233 -0.113304 -20.227276 -8.056010 7.374415 65.996595 3.819060 1.857130 -9.872330 -19.573104 -29.970271 11.399097 -33.114467 2.730627 -2.489967 9.307674 10.460006 0.249402 -3.635604 2.595665 0.699620 -0.237280 0.373240 0.126280 7.048913 37.858168 12.816129 37.686487 3.311083 -30.568080 -42.121015 67.862059 -32.279868 1.455509 -0.779157 -0.020790 0.341870 -0.262250 -0.126170 
0.572260 12.108150 0.671730 -111.337004 -75.682686 65.314038 -16.431178 6.064643 6.929352 13.895571 -13.249461 -91.450601 52.613407 -18.806050 100.357780 3.504391 19.465557 -1.136362 0.852870 0.707060 0.879730 18.605784 -3.542081 6.448686 -62.991830 11.125290 -39.277707 48.714565 -72.856657 84.830393 -3.842903 -14.838060 -0.017269 0.206250 -0.169280 0.123440 -2.838823 -2.616625 -12.357718 -12.839373 12.903703 53.753125 -8.906588 10.457228 17.871967 4.970382 0.939606 -18.841293 -4.079778 3.573345 64.810117 1.707480 1.879970 -14.732690 -17.601491 -28.641184 10.061728 -34.470138 -1.233118 -2.755094 14.678561 9.582913 0.596189 -3.589693 2.720706 0.708810 -0.287190 0.491070 0.182270 6.959766 35.948788 12.707888 46.056037 5.297842 -23.654688 -33.125339 44.604873 -17.244963 1.812998 -1.350382 0.069120 0.319700 -0.393810 -0.121540 
0.504350 12.064730 0.784680 -114.417733 -75.345430 65.429377 -16.513421 5.727440 7.314120 27.907671 -10.640857 -83.812318 43.393721 -10.168078 120.123515 3.455056 18.221765 -0.855136 0.971450 0.836610 0.997650 18.563693 -3.510677 6.345970 -59.376638 7.537025 -43.067897 23.850345 -63.431694 102.596114 -4.625888 -18.437832 -0.807396 0.201600 -0.350170 0.173470 -2.933845 -2.999756 -12.594902 -12.607438 9.175836 58.647756 -7.348098 7.901014 15.142584 3.932716 1.522557 -18.656358 -3.553096 2.206651 68.067831 1.302960 2.021310 -18.239250 -21.710036 -28.882106 10.204366 -31.856462 -0.169455 -4.121687 21.220186 6.421758 0.302983 -3.423965 2.900592 0.760980 -0.401090 0.633760 0.178270 13.464099 34.074044 12.090574 44.926482 1.906416 -17.303466 -21.913567 30.524297 -7.730989 2.111710 -1.391593 0.193980 0.204970 -0.491370 -0.130940 
